<svg xmlns="http://www.w3.org/2000/svg" version="1.1" xmlns:xlink="http://www.w3.org/1999/xlink" xmlns:svgjs="http://svgjs.dev/svgjs" width="1000" height="267" viewBox="0 0 1000 267"><g transform="matrix(1,0,0,1,-0.6060606060606233,0.29622012327857306)"><svg viewBox="0 0 396 106" data-background-color="#ffffff" preserveAspectRatio="xMidYMid meet" height="267" width="1000" xmlns="http://www.w3.org/2000/svg" xmlns:xlink="http://www.w3.org/1999/xlink"><g id="tight-bounds" transform="matrix(1,0,0,1,0.2400000000000091,-0.11760049838025566)"><svg viewBox="0 0 395.52 106.23520099676051" height="106.23520099676051" width="395.52"><g><svg viewBox="0 0 395.52 106.23520099676051" height="106.23520099676051" width="395.52"><g><svg viewBox="0 0 395.52 106.23520099676051" height="106.23520099676051" width="395.52"><g><svg viewBox="0 0 395.52 106.23520099676051" height="106.23520099676051" width="395.52"><g><svg viewBox="0 0 395.52 106.23520099676051" height="106.23520099676051" width="395.52"><rect width="395.52" height="106.23520099676051" x="0" y="0" opacity="1" fill="#096a2e" data-fill-palette-color="tertiary"></rect><g transform="matrix(1,0,0,1,23.607599999999998,23.607599999999998)"><svg width="348.3048" viewBox="3 -33.5 200.63999938964844 34" height="59.02000099676052" data-palette-color="#ffffff"><path d="M12.7 0.5L12.7 0.5Q9.8 0.5 7.75-0.1 5.7-0.7 3.5-1.8L3.5-1.8 3-9.5 3.9-9.5 6.75-3.15Q8.45-1.9 10.05-1.48 11.65-1.05 13.35-1.05L13.35-1.05Q16.7-1.05 18.4-2.83 20.1-4.6 20.1-7.8L20.1-7.8Q20.1-10.2 18.98-11.55 17.85-12.9 15.78-13.95 13.7-15 10.9-16.4L10.9-16.4Q8.7-17.5 7.23-18.6 5.75-19.7 5-21.18 4.25-22.65 4.25-24.85L4.25-24.85Q4.25-27 5.58-28.98 6.9-30.95 9-32.23 11.1-33.5 13.5-33.5L13.5-33.5Q15.7-33.5 17.53-32.95 19.35-32.4 21.3-31.4L21.3-31.4 21.8-23.9 20.9-23.9 18.7-29.85Q17.45-31 16.25-31.5 15.05-32 13.45-32L13.45-32Q10.4-32 8.75-30.25 7.1-28.5 7.1-26L7.1-26Q7.1-24.1 7.88-22.8 8.65-21.5 10.25-20.45 11.85-19.4 14.3-18.2L14.3-18.2Q17.3-16.75 19.25-15.43 21.2-14.1 22.13-12.4 23.05-10.7 23.05-8.1L23.05-8.1Q23.05-5.6 21.53-3.68 20-1.75 17.65-0.63 15.3 0.5 12.7 0.5ZM48.9 0L35.9 0 35.9-1.25 40.9-2.1 40.9-31.25 31.15-31.25 29.05-23.9 28.05-23.9 28.05-33 56.75-33 56.75-23.9 55.75-23.9 53.65-31.25 43.9-31.25 43.9-2.1 48.9-1.25 48.9 0ZM82.4 0L70.4 0 70.4-1.25 74.9-2.1 74.9-15.65 64.05-30.9 60.75-31.75 60.75-33 71.15-33 71.15-31.75 67.8-31.05 67.8-30.85 77.3-17.25 85.95-30.85 85.95-31.05 82.34-31.75 82.34-33 91.65-33 91.65-31.75 88.55-31.2 77.9-15.5 77.9-2.1 82.4-1.25 82.4 0ZM120.44 0L96.64 0 96.64-1.25 100.54-2.1 100.54-30.9 96.64-31.75 96.64-33 108.04-33 108.04-31.75 103.54-30.9 103.54-1.75 117.09-1.75 119.44-10.6 120.44-10.6 120.44 0ZM138.24 0L127.44 0 127.44-1.25 131.34-2.1 131.34-30.9 127.44-31.75 127.44-33 138.24-33 138.24-31.75 134.34-30.9 134.34-2.1 138.24-1.25 138.24 0ZM156.54 0L144.99 0 144.99-1.25 148.99-2.1 148.99-30.9 145.09-31.75 145.09-33 167.49-33 167.49-24.9 166.49-24.9 164.39-31.25 151.99-31.25 151.99-17.9 161.09-17.9 162.34-22.05 163.34-22.05 163.34-12.1 162.34-12.1 161.09-16.15 151.99-16.15 151.99-2.1 156.54-1.25 156.54 0ZM194.39 0L182.39 0 182.39-1.25 186.89-2.1 186.89-15.65 176.04-30.9 172.74-31.75 172.74-33 183.14-33 183.14-31.75 179.79-31.05 179.79-30.85 189.29-17.25 197.94-30.85 197.94-31.05 194.34-31.75 194.34-33 203.64-33 203.64-31.75 200.54-31.2 189.89-15.5 189.89-2.1 194.39-1.25 194.39 0Z" opacity="1" transform="matrix(1,0,0,1,0,0)" fill="#ffffff" class="undefined-text-0" data-fill-palette-color="quaternary" id="text-0"></path></svg></g></svg></g></svg></g></svg></g><g></g></svg></g><defs></defs></svg><rect width="395.52" height="106.23520099676051" fill="none" stroke="none" visibility="hidden"></rect></g></svg></g></svg>